<?xml version="1.0" encoding="UTF-8"?>
<svg version="1.1" xmlns="http://www.w3.org/2000/svg" width="1000" height="1000">
<path d="M0 0 C160.05 0 320.1 0 485 0 C485 268.95 485 537.9 485 815 C427.91 815 370.82 815 312 815 C312 603.47 312 391.94 312 174 C209.04 174 106.08 174 0 174 C0 116.58 0 59.16 0 0 Z " fill="#000000" transform="translate(146,95)"/>
<path d="M0 0 C19.28979554 16.20150142 32.55883506 38.20730032 35.21289062 63.58349609 C37.04183415 90.20655225 30.64713975 114.48737857 13.28710938 135.22021484 C12.60261719 136.00009766 11.918125 136.77998047 11.21289062 137.58349609 C10.55933594 138.33244141 9.90578125 139.08138672 9.23242188 139.85302734 C-6.61735164 156.83280347 -30.07273061 166.98674632 -53.16210938 167.78662109 C-80.33106995 168.24825092 -103.48928791 160.11494225 -123.78710938 141.58349609 C-141.00824765 124.83838929 -150.59398975 101.9353635 -151.99023438 78.11865234 C-152.3099294 54.43457938 -145.31233234 31.80875783 -129.78710938 13.58349609 C-129.19414063 12.84615234 -128.60117187 12.10880859 -127.99023438 11.34912109 C-97.0084313 -25.77783301 -37.25558123 -29.52962873 0 0 Z M-58.78710938 23.58349609 C-60.30052917 26.35790338 -61.15091032 28.78177137 -61.68164062 31.89208984 C-61.90327881 33.1275354 -61.90327881 33.1275354 -62.12939453 34.38793945 C-62.28456543 35.25684814 -62.43973633 36.12575684 -62.59960938 37.02099609 C-63.78147058 43.10345853 -64.99792383 49.12286962 -66.91210938 55.02099609 C-67.2240625 55.98908203 -67.53601563 56.95716797 -67.85742188 57.95458984 C-72.98030475 64.93374 -83.4774954 66.9965434 -91.41210938 69.39599609 C-92.91837891 69.86295898 -92.91837891 69.86295898 -94.45507812 70.33935547 C-96.89682678 71.09513481 -99.34068522 71.84302108 -101.78710938 72.58349609 C-101.78710938 73.57349609 -101.78710938 74.56349609 -101.78710938 75.58349609 C-100.9953833 75.84042236 -100.20365723 76.09734863 -99.38793945 76.36206055 C-96.43236826 77.32443525 -93.47867716 78.29232807 -90.52612305 79.26391602 C-88.62687362 79.88705082 -86.72555756 80.50387529 -84.82421875 81.12060547 C-83.02114258 81.71518555 -83.02114258 81.71518555 -81.18164062 82.32177734 C-80.07667236 82.68311768 -78.9717041 83.04445801 -77.83325195 83.41674805 C-73.86232145 84.93771277 -70.62068267 86.2034692 -68.38085938 89.91162109 C-65.18770166 98.44191386 -63.24858586 107.02752458 -61.57421875 115.97509766 C-61.38408203 116.94415039 -61.19394531 117.91320312 -60.99804688 118.91162109 C-60.8361084 119.7872168 -60.67416992 120.6628125 -60.50732422 121.56494141 C-60.15081787 122.56412598 -60.15081787 122.56412598 -59.78710938 123.58349609 C-58.79710937 123.91349609 -57.80710937 124.24349609 -56.78710938 124.58349609 C-56.62855469 123.86548828 -56.47 123.14748047 -56.30664062 122.40771484 C-55.4919783 118.79349468 -54.64825074 115.18686518 -53.78710938 111.58349609 C-53.59955078 110.7968457 -53.41199219 110.01019531 -53.21875 109.19970703 C-52.60978158 106.67810478 -51.9819202 104.16183782 -51.34960938 101.64599609 C-51.15665283 100.84186279 -50.96369629 100.03772949 -50.76489258 99.20922852 C-49.22171202 93.17805364 -47.52034981 88.23241406 -41.93164062 84.86083984 C-32.69814912 81.14795874 -23.3817071 78.20865237 -13.78710938 75.58349609 C-13.78710938 74.59349609 -13.78710938 73.60349609 -13.78710938 72.58349609 C-14.44195313 72.39239258 -15.09679687 72.20128906 -15.77148438 72.00439453 C-18.77903976 71.12188093 -21.78303475 70.22778319 -24.78710938 69.33349609 C-25.81707031 69.03314453 -26.84703125 68.73279297 -27.90820312 68.42333984 C-42.67876649 64.00157884 -42.67876649 64.00157884 -47.12695312 58.89990234 C-49.1542008 54.850177 -50.29644106 50.91000359 -51.34960938 46.52099609 C-51.5586792 45.68914795 -51.76774902 44.8572998 -51.9831543 44.00024414 C-52.59903118 41.53126534 -53.1969458 39.05873542 -53.78710938 36.58349609 C-53.95662109 35.87418945 -54.12613281 35.16488281 -54.30078125 34.43408203 C-55.15768463 30.82335431 -55.98690308 27.20719453 -56.78710938 23.58349609 C-57.44710937 23.58349609 -58.10710937 23.58349609 -58.78710938 23.58349609 Z " fill="#000000" transform="translate(818.787109375,109.41650390625)"/>
</svg>
